<?xml version="1.0" encoding="utf-8"?>
<!-- Generator: Adobe Illustrator 26.4.1, SVG Export Plug-In . SVG Version: 6.00 Build 0)  -->
<svg version="1.1" xmlns="http://www.w3.org/2000/svg" xmlns:xlink="http://www.w3.org/1999/xlink" x="0px" y="0px"
	 viewBox="0 0 500 500" style="enable-background:new 0 0 500 500;" xml:space="preserve">
<style type="text/css">
	.st0{display:none;}
	.st1{display:inline;}
	.st2{fill:#FF6A00;}
	.st3{fill:#FF4000;}
	.st4{fill:#E62300;}
	.st5{fill:#CC1F00;}
	.st6{fill:#B31B00;}
	.st7{fill:#991700;}
	.st8{fill:#801300;}
	.st9{fill:#661000;}
	.st10{fill:#400A00;}
	.st11{fill:#660F00;}
	.st12{fill:#400900;}
</style>
<g id="Layer_1" class="st0">
</g>
<g id="Layer_3">
	<path class="st2" d="M153.46,437.13c0,0.87,0.09,1.71,0.28,2.53C83.53,406.2,35.11,335.36,35.11,253.39
		c0-43.8,13.82-84.42,37.41-117.86l9.03,16.34l8.53,15.43l8.12,14.68l7.79,14.08l7.55,13.67l7.49,13.55l7.64,13.81l8.2,14.83
		l10.01,18.1v0.01l3.04,5.5c2.54,3.79,3.53,8.26,3.53,12.76V437.13z"/>
	<path class="st3" d="M149.94,275.52c2.54,3.79,3.53,8.26,3.53,12.76v132.76C92.93,388.9,51.8,325.88,51.8,253.39
		c0-37.33,10.92-72.14,29.76-101.52l8.53,15.43l8.12,14.68l7.79,14.08l7.55,13.67l7.49,13.55l7.64,13.81l8.2,14.83l10.01,18.1v0.01
		L149.94,275.52z"/>
	<path class="st4" d="M149.94,275.52c2.54,3.79,3.53,8.26,3.53,12.76v115.35c-51.71-30.66-86.3-86.47-86.3-150.24
		c0-31.29,8.33-60.66,22.92-86.09l8.12,14.68l7.79,14.08l7.55,13.67l7.49,13.55l7.64,13.81l8.2,14.83l10.01,18.1v0.01L149.94,275.52
		z"/>
	<path class="st5" d="M149.94,275.52c2.54,3.79,3.53,8.26,3.53,12.76v98.82c-43.53-28.98-72.14-78.06-72.14-133.71
		c0-25.64,6.07-49.89,16.89-71.41l7.79,14.08l7.55,13.67l7.49,13.55l7.64,13.81l8.2,14.83l10.01,18.1v0.01L149.94,275.52z"/>
	<path class="st6" d="M149.94,275.52c2.54,3.79,3.53,8.26,3.53,12.76v83.03c-35.94-27.14-59.12-69.86-59.12-117.91
		c0-20.33,4.14-39.7,11.66-57.33l7.55,13.67l7.49,13.55l7.64,13.81l8.2,14.83l10.01,18.1v0.01L149.94,275.52z"/>
	<path class="st7" d="M149.94,275.52c2.54,3.79,3.53,8.26,3.53,12.76v67.76c-28.9-25.05-47.14-61.75-47.14-102.65
		c0-15.27,2.54-29.96,7.23-43.66l7.49,13.55l7.64,13.81l8.2,14.83l10.01,18.1v0.01L149.94,275.52z"/>
	<path class="st8" d="M149.94,275.52c2.54,3.79,3.53,8.26,3.53,12.76v52.77c-22.35-22.66-36.11-53.58-36.11-87.65
		c0-10.38,1.27-20.47,3.69-30.12l7.64,13.81l8.2,14.83l10.01,18.1v0.01L149.94,275.52z"/>
	<path class="st9" d="M149.94,275.52c2.54,3.79,3.53,8.26,3.53,12.76v37.67c-16.24-19.85-25.95-45.09-25.95-72.56
		c0-5.54,0.39-10.98,1.17-16.31l8.2,14.83l10.01,18.1v0.01L149.94,275.52z"/>
	<path class="st10" d="M149.94,275.52c2.54,3.79,3.53,8.26,3.53,12.76v21.86c-10.51-16.43-16.6-35.89-16.6-56.74
		c0-0.5,0-0.98,0.02-1.48l10.01,18.1v0.01L149.94,275.52z"/>
</g>
<g id="Layer_2">
	<g>
		<g>
			<g>
				<path d="M200.06,250c0,2,0.12,3.97,0.35,5.91v-11.82C200.18,246.03,200.06,248,200.06,250z"/>
				<path d="M200.41,244.09c-0.23,1.94-0.35,3.91-0.35,5.91s0.12,3.97,0.35,5.91v175.58c0,6.46-5.24,11.71-11.7,11.71h-16.12
					c-5.61,0-10.3-3.95-11.44-9.21c-0.18-0.81-0.27-1.64-0.27-2.5V284.46c0-4.44-0.96-8.86-3.43-12.6l-2.96-5.43v-0.01l-9.74-17.88
					l-7.98-14.65l-7.43-13.64l-7.29-13.38l-7.35-13.5l-7.58-13.91l-7.9-14.5l-8.3-15.24l-8.79-16.14l-9.35-17.17l-9.99-18.34
					L34.44,46.02c-4.24-7.8,1.4-17.3,10.28-17.3h55.61c4.47,0,8.54,2.53,10.5,6.53c2.14,4.37,4.34,8.83,6.58,13.36
					c2.8,5.67,5.67,11.46,8.58,17.32c2.62,5.27,5.28,10.6,7.95,15.96c2.44,4.88,4.89,9.79,7.34,14.69
					c2.27,4.53,4.54,9.04,6.79,13.54c2.1,4.18,4.19,8.35,6.26,12.48c1.96,3.88,3.89,7.72,5.79,11.52c1.81,3.59,3.59,7.14,5.36,10.63
					c1.67,3.33,3.32,6.61,4.94,9.84c1.55,3.08,3.08,6.11,4.57,9.09c1.44,2.85,2.85,5.65,4.23,8.39c1.33,2.66,2.64,5.26,3.91,7.8
					c0.63,1.25,1.25,2.48,1.86,3.69c0.6,1.2,1.19,2.38,1.77,3.54c0.58,1.16,1.15,2.3,1.72,3.43c0.56,1.12,1.11,2.22,1.65,3.3
					c0.54,1.08,1.07,2.14,1.59,3.18c0.52,1.05,1.04,2.08,1.54,3.09c0.51,1.01,1,2,1.48,2.97c0.49,0.98,0.96,1.93,1.43,2.86
					c0.47,0.95,0.93,1.89,1.38,2.8c0.46,0.92,0.91,1.82,1.34,2.7c0.11,0.21,0.21,0.41,0.31,0.62c0.35,0.71,0.63,1.46,0.82,2.22
					c0.26,0.96,0.39,1.96,0.39,2.96V244.09z"/>
			</g>
			<g>
				<path d="M264.37,275.35c-0.1-0.41-0.19-0.81-0.29-1.21c-0.09-0.39-0.17-0.77-0.27-1.15c-0.08-0.38-0.16-0.75-0.25-1.12
					c-0.08-0.36-0.16-0.72-0.24-1.08c-0.09-0.35-0.16-0.7-0.24-1.05c-0.08-0.34-0.15-0.67-0.23-1c-0.07-0.33-0.14-0.65-0.22-0.97
					c-0.07-0.32-0.14-0.63-0.2-0.94c-0.04-0.18-0.08-0.36-0.12-0.53c-0.03-0.12-0.07-0.24-0.12-0.36c-0.55,0.43-1.13,0.82-1.72,1.18
					c0.01,0.32,0.03,0.64,0.05,0.96c0.03,0.33,0.05,0.66,0.06,0.99c0.03,0.33,0.05,0.67,0.07,1.01c0.02,0.35,0.04,0.69,0.06,1.05
					c0.02,0.36,0.04,0.72,0.06,1.09c0.02,0.37,0.04,0.74,0.07,1.12c0.02,0.38,0.04,0.77,0.06,1.16c0.02,0.4,0.04,0.81,0.06,1.22
					c0.02,0.41,0.05,0.83,0.07,1.25c0.02,0.43,0.04,0.86,0.06,1.3c0.02,0.45,0.05,0.91,0.07,1.37c0.02,0.46,0.04,0.93,0.06,1.4
					c0.02,0.48,0.05,0.96,0.07,1.45c0.02,0.5,0.04,1.01,0.07,1.53c0.02,0.52,0.04,1.04,0.06,1.57c0.02,0.54,0.05,1.09,0.07,1.64
					c0.02,0.56,0.04,1.12,0.07,1.69c0.02,0.59,0.04,1.18,0.07,1.78c0.02,0.61,0.04,1.22,0.06,1.83c0.02,0.64,0.05,1.27,0.07,1.92
					c0.02,0.65,0.04,1.32,0.07,1.98v0.01c0.02,0.69,0.04,1.38,0.07,2.07c0.02,0.72,0.04,1.43,0.06,2.16
					c0.03,0.74,0.05,1.49,0.07,2.24c0.02,0.78,0.05,1.56,0.06,2.34c0.03,0.81,0.05,1.62,0.08,2.43c0.02,0.84,0.04,1.68,0.06,2.53
					c0.03,0.87,0.05,1.75,0.07,2.63c0.02,0.91,0.05,1.83,0.07,2.75c0.02,0.95,0.04,1.9,0.06,2.86c0.01,0.38,0.02,0.77,0.03,1.15
					c0.01,0.61,0.03,1.22,0.04,1.83c0.02,1.03,0.04,2.06,0.07,3.09c0.02,1.07,0.04,2.15,0.06,3.23c0.02,1.12,0.04,2.25,0.06,3.37
					c0.02,1.17,0.04,2.33,0.06,3.5c0.02,1.22,0.04,2.43,0.05,3.65c0.03,1.27,0.04,2.54,0.06,3.81c0.02,1.32,0.04,2.64,0.05,3.96
					c0.04,2.82,0.07,5.63,0.1,8.43c0.03,3.07,0.05,6.12,0.07,9.15c0.03,3.35,0.05,6.67,0.06,9.94c0.01,3.66,0.02,7.26,0.02,10.78
					v38.24c0.36-0.03,0.72-0.06,1.09-0.09V283.96c0-0.36,0.01-0.72,0.02-1.07c0.02-0.55,0.05-1.1,0.1-1.64
					c0.06-0.55,0.12-1.1,0.21-1.64c0.09-0.57,0.2-1.13,0.33-1.68c0.01-0.04,0.02-0.08,0.03-0.12c0.13-0.55,0.28-1.1,0.46-1.64
					c0.2-0.64,0.44-1.27,0.71-1.88C265.54,274.66,264.96,275.02,264.37,275.35z M286.41,236.16c0.06,0.16,0.12,0.32,0.18,0.49
					l0.16-0.28C286.64,236.29,286.53,236.22,286.41,236.16z M227.68,237.09c-0.19,0.39-0.39,0.78-0.58,1.17
					c0.28-0.56,0.58-1.11,0.91-1.64C227.88,236.76,227.77,236.92,227.68,237.09z M224.92,242.66c-0.14,0.29-0.2,0.59-0.2,0.9v1.6
					c0.4-2.12,1.06-4.14,1.95-6.04C226.07,240.35,225.48,241.52,224.92,242.66z"/>
				<path d="M466.92,469.2c-2.43-8.99-10.93-40.38-21.37-78.15c-2.18-7.89-4.44-16.06-6.75-24.36c-2.21-7.92-4.46-15.96-6.72-24
					c-2.29-8.16-4.59-16.31-6.88-24.32c-2.51-8.83-4.99-17.5-7.4-25.82c-3.14-10.85-6.16-21.12-8.94-30.39
					c-2.83-9.42-5.42-17.82-7.67-24.78c-0.29-0.86-1.07-1.42-1.96-1.42H340.5c-1.14,0-2.06,0.92-2.06,2.05v0.42
					c0.5,3.79,0.75,7.65,0.75,11.57c0,3.92-0.25,7.78-0.75,11.57v142.57c0,2.41-3.41,2.85-4.04,0.53c-0.27-1.02-0.55-2.05-0.82-3.09
					c-1.19-4.47-2.41-9.05-3.67-13.73c-1.11-4.18-2.25-8.43-3.4-12.73c-1.05-3.89-2.11-7.82-3.18-11.78
					c-0.98-3.62-1.97-7.27-2.96-10.93c-0.92-3.38-1.84-6.78-2.76-10.17c-0.87-3.15-1.73-6.3-2.59-9.44
					c-0.81-2.95-1.62-5.9-2.43-8.83c-0.39-1.4-0.77-2.8-1.16-4.2c-0.37-1.36-0.75-2.71-1.12-4.06c-0.37-1.32-0.73-2.63-1.09-3.94
					c-0.36-1.28-0.72-2.55-1.07-3.82c-0.35-1.24-0.69-2.48-1.04-3.71c-0.34-1.21-0.68-2.42-1.02-3.61
					c-0.32-1.18-0.65-2.36-0.98-3.52c-0.33-1.16-0.65-2.3-0.97-3.44c-0.32-1.13-0.64-2.25-0.95-3.36c-0.31-1.1-0.63-2.2-0.94-3.29
					c-0.31-1.1-0.62-2.18-0.93-3.26c-0.3-1.08-0.61-2.15-0.91-3.21c-0.31-1.07-0.62-2.14-0.92-3.19c-0.31-1.07-0.61-2.12-0.92-3.17
					c-0.31-1.08-0.62-2.15-0.93-3.21c-0.32-1.1-0.64-2.19-0.95-3.26c-0.33-1.12-0.65-2.23-0.98-3.33c-0.35-1.2-0.7-2.38-1.04-3.54
					c-0.38-1.28-0.76-2.55-1.14-3.79c-0.26-0.89-0.52-1.77-0.78-2.63c-0.18-0.58-0.35-1.16-0.53-1.74c-0.59-1.98-1.18-3.9-1.75-5.76
					c-1.06-3.43-2.06-6.63-3.01-9.57c-0.14-0.41-0.39-0.75-0.71-0.99l-0.16,0.28c-0.06-0.17-0.12-0.33-0.18-0.49
					c0.12,0.06,0.23,0.13,0.34,0.21l0.88-1.62l1.05-1.92l1.06-1.96l1.09-1.99l1.11-2.05l0.81-1.48l0.33-0.6l1.17-2.16l1.2-2.21
					l1.24-2.27l1.28-2.35l1.33-2.43l1.35-2.49l1.41-2.59l1.46-2.68l1.51-2.76l1.56-2.88l1.63-2.98l1.68-3.09l1.75-3.2l1.81-3.33
					l1.87-3.45l1.97-3.6l4.14-7.6l4.47-8.2l4.84-8.9l5.24-9.63l5.68-10.41l6.15-11.29l6.66-12.24l7.22-13.26l7.84-14.39l8.51-15.63
					l9.23-16.94l3.41-6.26c4.25-7.8-1.4-17.31-10.28-17.31H324.8c-4.47,0-8.54,2.53-10.5,6.54c-0.4,0.8-0.79,1.61-1.19,2.42
					c-2.58,5.25-5.24,10.62-7.94,16.09c-2.42,4.88-4.88,9.84-7.37,14.84c-2.25,4.53-4.53,9.11-6.83,13.7
					c-2.1,4.21-4.21,8.44-6.32,12.66c-1.96,3.91-3.92,7.82-5.87,11.72c-1.82,3.63-3.64,7.24-5.44,10.84
					c-1.7,3.37-3.38,6.73-5.06,10.06c-1.58,3.15-3.15,6.27-4.7,9.36c-1.47,2.93-2.93,5.83-4.37,8.69c-1.38,2.74-2.74,5.44-4.08,8.1
					c-0.65,1.3-1.29,2.58-1.94,3.86c-0.63,1.25-1.25,2.49-1.87,3.73c-0.61,1.21-1.22,2.42-1.82,3.61c-0.59,1.18-1.17,2.34-1.76,3.5
					c-0.57,1.14-1.14,2.27-1.7,3.39s-1.11,2.22-1.66,3.31c-0.55,1.08-1.08,2.15-1.62,3.21c-0.53,1.06-1.05,2.11-1.58,3.14
					c-0.51,1.04-1.02,2.06-1.53,3.07s-1.01,2.02-1.51,3.01c-0.5,1-1,1.99-1.48,2.96c-0.5,0.99-0.98,1.96-1.45,2.91
					c-0.5,0.98-0.98,1.95-1.45,2.89c-0.49,0.98-0.97,1.93-1.43,2.87c-0.49,0.97-0.97,1.93-1.43,2.87c-0.5,0.99-0.98,1.96-1.45,2.91
					h-0.01c-0.4,0.81-0.79,1.61-1.18,2.39c-0.1,0.2-0.2,0.39-0.29,0.58c-0.53,1.06-1.05,2.08-1.53,3.08
					c-0.18,0.34-0.35,0.68-0.51,1.02c-0.32,0.65-0.58,1.32-0.77,2.01c-0.23,0.81-0.37,1.65-0.42,2.5c-0.01,0.22-0.02,0.44-0.02,0.67
					v26.83c0-0.31,0.06-0.61,0.2-0.9c0.56-1.14,1.15-2.31,1.75-3.54c-0.89,1.9-1.55,3.92-1.95,6.04v185.83c0,2,0.5,3.89,1.39,5.54
					c1.98,3.68,5.85,6.17,10.31,6.17h16.12c4,0,7.53-2,9.64-5.06c1.31-1.89,2.07-4.18,2.07-6.65v-8.5
					c-0.37,0.03-0.73,0.06-1.09,0.09v-38.24c0-3.52-0.01-7.12-0.02-10.78c-0.01-3.27-0.03-6.59-0.06-9.94
					c-0.02-3.03-0.04-6.08-0.07-9.15c-0.03-2.8-0.06-5.61-0.1-8.43c-0.01-1.32-0.03-2.64-0.05-3.96c-0.02-1.27-0.03-2.54-0.06-3.81
					c-0.01-1.22-0.03-2.43-0.05-3.65c-0.02-1.17-0.04-2.33-0.06-3.5c-0.02-1.12-0.04-2.25-0.06-3.37c-0.02-1.08-0.04-2.16-0.06-3.23
					c-0.03-1.03-0.05-2.06-0.07-3.09c-0.01-0.61-0.03-1.22-0.04-1.83c-0.01-0.38-0.02-0.77-0.03-1.15
					c-0.02-0.96-0.04-1.91-0.06-2.86c-0.02-0.92-0.05-1.84-0.07-2.75c-0.02-0.88-0.04-1.76-0.07-2.63
					c-0.02-0.85-0.04-1.69-0.06-2.53c-0.03-0.81-0.05-1.62-0.08-2.43c-0.01-0.78-0.04-1.56-0.06-2.34c-0.02-0.75-0.04-1.5-0.07-2.24
					c-0.02-0.73-0.04-1.44-0.06-2.16c-0.03-0.69-0.05-1.38-0.07-2.07v-0.01c-0.03-0.66-0.05-1.33-0.07-1.98
					c-0.02-0.65-0.05-1.28-0.07-1.92c-0.02-0.61-0.04-1.22-0.06-1.83c-0.03-0.6-0.05-1.19-0.07-1.78c-0.03-0.57-0.05-1.13-0.07-1.69
					c-0.02-0.55-0.05-1.1-0.07-1.64c-0.02-0.53-0.04-1.05-0.06-1.57c-0.03-0.52-0.05-1.03-0.07-1.53c-0.02-0.49-0.05-0.97-0.07-1.45
					c-0.02-0.47-0.04-0.94-0.06-1.4c-0.02-0.46-0.05-0.92-0.07-1.37c-0.02-0.44-0.04-0.87-0.06-1.3c-0.02-0.42-0.05-0.84-0.07-1.25
					c-0.02-0.41-0.04-0.82-0.06-1.22c-0.02-0.39-0.04-0.78-0.06-1.16c-0.03-0.38-0.05-0.75-0.07-1.12
					c-0.02-0.37-0.04-0.73-0.06-1.09c-0.02-0.36-0.04-0.7-0.06-1.05c-0.02-0.34-0.04-0.68-0.07-1.01c-0.01-0.33-0.03-0.66-0.06-0.99
					c-0.02-0.32-0.04-0.64-0.05-0.96c0.59-0.36,1.17-0.75,1.72-1.18c0.05,0.12,0.09,0.24,0.12,0.36c0.04,0.17,0.08,0.35,0.12,0.53
					c0.06,0.31,0.13,0.62,0.2,0.94c0.08,0.32,0.15,0.64,0.22,0.97c0.08,0.33,0.15,0.66,0.23,1c0.08,0.35,0.15,0.7,0.24,1.05
					c0.08,0.36,0.16,0.72,0.24,1.08c0.09,0.37,0.17,0.74,0.25,1.12c0.1,0.38,0.18,0.76,0.27,1.15c0.1,0.4,0.19,0.8,0.29,1.21
					c0.59-0.33,1.17-0.69,1.74-1.06c-0.27,0.61-0.51,1.24-0.71,1.88c-0.18,0.54-0.33,1.09-0.46,1.64c0.01,0.03,0.02,0.07,0.03,0.1
					c0.1,0.44,0.2,0.89,0.31,1.34c0.11,0.46,0.22,0.93,0.33,1.4c0.12,0.48,0.23,0.97,0.35,1.46c0.12,0.5,0.25,1.01,0.37,1.52
					c0.12,0.52,0.25,1.03,0.38,1.56c0.13,0.54,0.26,1.08,0.4,1.63c0.13,0.57,0.27,1.13,0.42,1.71c0.14,0.58,0.28,1.16,0.43,1.75
					c0.15,0.61,0.3,1.23,0.46,1.85c0.15,0.63,0.31,1.27,0.47,1.91c0.17,0.66,0.33,1.33,0.5,2c0.07,0.29,0.15,0.58,0.22,0.87
					c0.1,0.39,0.2,0.79,0.3,1.19c0.18,0.71,0.36,1.43,0.55,2.16c0.18,0.74,0.37,1.49,0.56,2.25c0.2,0.77,0.4,1.55,0.59,2.34
					c0.21,0.8,0.42,1.61,0.62,2.43c0.22,0.84,0.44,1.68,0.66,2.53c0.22,0.88,0.45,1.76,0.67,2.65c0.24,0.91,0.48,1.82,0.72,2.74
					c0.24,0.96,0.49,1.92,0.74,2.88c0.26,0.98,0.52,1.97,0.78,2.97c0.26,1.03,0.54,2.07,0.81,3.11c0.28,1.07,0.56,2.15,0.84,3.23
					c0.3,1.12,0.6,2.24,0.89,3.37l0.93,3.51c0.32,1.22,0.64,2.43,0.97,3.66c0.34,1.27,0.68,2.54,1.01,3.82
					c0.72,2.68,1.44,5.38,2.17,8.1c0.79,2.92,1.58,5.85,2.37,8.8c0.86,3.18,1.73,6.37,2.59,9.56c0.94,3.45,1.89,6.91,2.83,10.36
					c1.03,3.76,2.07,7.52,3.09,11.26c1.14,4.09,2.27,8.17,3.39,12.22c1.24,4.47,2.48,8.9,3.7,13.27c1.36,4.89,2.72,9.71,4.04,14.41
					c1.51,5.37,2.99,10.59,4.42,15.63c1.68,5.94,3.3,11.62,4.84,16.98c0.79,2.75,1.55,5.41,2.29,7.97c0.25,0.87,1.04,1.47,1.96,1.47
					h55.89c1.13,0,2.05-0.92,2.05-2.05v-85.34c0-5.37-0.02-10.94-0.05-16.63c-0.04-6.91-0.1-13.99-0.19-21.08
					c-0.09-7.41-0.21-14.83-0.35-22.11c-0.04-1.66-0.07-3.32-0.11-4.97c-0.16-6.94-0.33-13.72-0.53-20.17
					c-0.43-13.43-0.97-25.46-1.63-34.73c0.96,0,1.79,0.67,2.01,1.6c1.23,5.55,2.7,11.83,4.37,18.69c1.57,6.49,3.32,13.51,5.2,20.91
					c1.57,6.14,3.23,12.55,4.96,19.15c1.59,6.09,3.25,12.34,4.95,18.69c1.65,6.22,3.35,12.53,5.08,18.87
					c1.74,6.45,3.51,12.94,5.29,19.41c1.87,6.79,3.73,13.55,5.58,20.22c2.01,7.22,4,14.33,5.94,21.25
					c4.85,17.28,9.42,33.34,13.3,46.82c0.25,0.87,1.05,1.47,1.97,1.47h32.27C466.29,471.78,467.28,470.5,466.92,469.2z
					 M227.1,238.26c0.19-0.39,0.39-0.78,0.58-1.17c0.09-0.17,0.2-0.33,0.33-0.47C227.68,237.15,227.38,237.7,227.1,238.26z"/>
			</g>
		</g>
		<g>
			<g>
				<path d="M226.67,239.12c-0.89,1.9-1.55,3.92-1.95,6.04v-1.6c0-0.31,0.06-0.61,0.2-0.9
					C225.48,241.52,226.07,240.35,226.67,239.12z"/>
				<path d="M228.01,236.62c-0.33,0.53-0.63,1.08-0.91,1.64c0.19-0.39,0.39-0.78,0.58-1.17
					C227.77,236.92,227.88,236.76,228.01,236.62z"/>
				<path d="M266.11,274.29c-0.27,0.61-0.51,1.24-0.71,1.88c-0.18,0.54-0.33,1.09-0.46,1.64c-0.09-0.41-0.19-0.81-0.28-1.21
					c-0.1-0.42-0.2-0.84-0.29-1.25C264.96,275.02,265.54,274.66,266.11,274.29z"/>
				<path d="M286.75,236.37l-0.16,0.28c-0.06-0.17-0.12-0.33-0.18-0.49C286.53,236.22,286.64,236.29,286.75,236.37z"/>
				<path d="M339.19,250c0,3.92-0.25,7.78-0.75,11.57v-23.14C338.94,242.22,339.19,246.08,339.19,250z"/>
			</g>
		</g>
		<g>
			<path d="M213.85,180.02c0.44,0.02,0.89,0.04,1.35,0.05v-0.75C214.74,179.54,214.3,179.77,213.85,180.02z"/>
			<path d="M215.03,82.56v64.72c0,1.22,0.04,2.33,0.13,3.36c0.01,0.14,0.03,0.27,0.04,0.41v28.27c-0.46,0.22-0.9,0.45-1.35,0.7
				c-0.01,0.01-0.01,0-0.02,0c-2.08-0.09-4.02-0.28-5.82-0.57c-1.71-0.27-3.3-0.64-4.77-1.12h-0.01c-1.45-0.45-2.79-1.01-4.01-1.66
				c-1.22-0.66-2.32-1.41-3.31-2.28c-1.01-0.86-1.91-1.83-2.69-2.91c-1.58-2.14-2.75-4.71-3.55-7.75
				c-0.77-2.91-1.21-6.24-1.35-10.04c-0.04-0.94-0.06-1.92-0.06-2.92V28.72h26.77v32.64h21.84v21.2H215.03z"/>
		</g>
	</g>
</g>
</svg>
